<svg width="256" height="256" viewBox="0 0 256 256" fill="none" xmlns="http://www.w3.org/2000/svg">
<path fill-rule="evenodd" clip-rule="evenodd" d="M0 128.069C0 57.4097 57.4306 0 128.087 0C198.583 0 256 57.4097 256 128.069C256 198.583 198.583 256 128.087 256C57.4306 256 0 198.583 0 128.069ZM6.39931 128.069C6.39931 195.056 60.9861 249.597 128.087 249.597C195.052 249.597 249.601 195.042 249.601 128.069C249.601 60.9722 195.073 6.40278 128.087 6.40278C60.9653 6.40278 6.39931 60.9444 6.39931 128.069ZM164.406 47.5972C144.149 38.5625 106.403 37.6667 75.4826 51.4375C77.9549 49.6667 80.5347 48.0694 83.2118 46.6389C84.8438 45.7639 86.5139 44.9514 88.2118 44.2083C97.9479 39.6736 113.649 35.2778 133.219 35.2778C134.142 35.2778 135.066 35.2847 135.993 35.3056C152.726 35.6042 172.563 41.3819 184.688 53.375C186.75 55.8889 187.944 58.3958 188.385 60.3333C198.007 65.2222 203.625 69.8056 206.726 75.1389C208.069 77.9444 208.51 80.8958 207.906 84.3056C211.063 86.0764 213.799 88.5069 215.927 91.4375C217.236 93.6528 218.274 96.1458 218.58 98.4028C219.014 101.34 219.306 104.743 216.198 108.75C219.455 110.382 222.108 114.951 222.427 116.896C224.056 124.125 219.306 131.236 213.247 136.729C208.712 140.688 200.694 145.132 192.177 148.681C187.337 150.694 182.333 152.424 177.719 153.604C159.938 158.104 143.538 160.757 129.184 163.083C123.253 164.049 117.67 164.951 112.483 165.903C117.212 167.035 122.931 168.389 130.465 169.299C135.653 169.931 141.701 170.347 148.885 170.347C186.601 170.347 219.903 152.563 219.903 152.563C219.903 152.563 219.17 154.799 218.417 156.875C194.451 171.375 156.431 177.438 140.139 176.694C123.712 175.944 109.809 173.438 96.191 169.285C92.0313 170.458 87.934 171.84 83.9167 173.438C104.646 182.91 120.319 184.993 137.934 186.313C155.972 187.66 185.882 183.347 211.014 174.194C210.451 174.764 210.021 175.465 209.601 176.153C209.139 176.903 208.684 177.646 208.069 178.188C195.191 184.993 167.979 191.806 154.212 192.396C140.587 192.993 124.017 192.396 109.51 189.722C97.0799 187.222 86.8542 183.347 76.2083 178.632C74.3021 180.09 73.4132 181.889 72.9514 183.965C114.559 205.722 153.306 206.153 197.573 192.396L193.563 196.25C144.875 216.09 106.844 208.382 77.3819 194.167C76.3646 193.722 75.1771 193.271 74.3021 192.688C77.1181 197.431 99.5903 213.861 124.75 215.938C133.847 216.715 144 216.264 153.41 214.938C161.924 213.736 169.833 211.813 175.806 209.431L168.41 213.271C162.337 216.236 146.212 223.063 123.705 221.569C93.6736 219.486 76.7986 206.16 69.2465 199.215C65.6979 195.938 64.0833 192.25 63.0382 187.66C56.2257 184.104 51.9375 180.389 48.4028 174.771C46.3264 171.667 46.7535 167.972 47.1944 164.84L48.1181 162.208C44.8403 159.813 41.441 157.299 40.1111 154.799C37.1319 149.465 38.9375 144.868 41 141.313C40.3438 140.556 39.7083 139.799 39.1319 139.042C38.1389 137.729 37.3194 136.417 36.8715 135.104C35.9722 132.736 35.8333 130.34 36.1007 127.688C36.7049 123.257 39.0729 119.125 42.1806 115.556C48.6806 108 59.0625 102.083 76.6493 96.3125C90.059 91.8333 97.2604 90.2847 105.865 88.4375C108.382 87.8958 111.017 87.3333 113.962 86.6597C129.201 83.1319 147.406 81.9583 162.635 76.625C120.163 69.2292 76.0729 76.0278 40.1111 100.729L42.4722 93.7778C74.7292 72.7639 110.399 60.3333 170.771 70.8472C174.028 68.9167 175.948 66.9861 176.851 63.1458C161.747 57.6736 145.33 55.75 124.174 56.0347C105.222 56.6389 71.0243 63.7153 52.7049 74.5625L58.3021 67.5903C71.0243 60.0139 104.319 50.1111 129.351 49.6667C146.944 49.2292 155.972 50.2569 176.993 55.8889C175.052 52.3542 170.771 50.5625 164.406 47.5972ZM196.663 78.4028C196.087 74.2569 191.351 70.2569 187.198 67.5903C186.813 68.9375 185.753 70.4653 184.649 71.8194C184.052 72.5556 183.441 73.2361 182.917 73.8125C187.503 75.0069 192.24 76.7569 196.663 78.4028ZM176.41 79.7222C173.431 82.0972 170.045 84.1597 164.997 86.1042C173.302 87.5556 179.517 89.9306 186.601 91.8681C186.674 91.9028 186.757 91.9167 186.837 91.9097C188.378 91.9097 193.448 87.2222 194.323 85.9375C191.58 84.7361 188.5 83.5278 185.198 82.3958C182.403 81.4375 179.451 80.5278 176.41 79.7222ZM208.069 101.486C209.983 97.7847 208.802 95.4167 204.819 92.0069C203.184 93.9514 201.406 95.5625 199.486 97.0417C200.882 97.7083 202.222 98.2847 203.517 98.8958C205.097 99.6389 206.611 100.431 208.069 101.486ZM141.49 93.6528C121.955 96.0208 100.337 100.146 81.8472 105.632L80.8611 105.931C71.684 108.722 36.9826 119.25 47.5208 133.764L47.6458 133.625C48.6528 132.486 55.9688 124.174 79.0243 117.472C95.2431 112.708 111.872 109.681 128.76 106.604C143.931 103.84 159.313 101.035 174.788 96.9028C165.576 94.4514 159.299 92.9861 151.444 92.9792C148.441 92.9792 145.208 93.1944 141.49 93.6528ZM162.646 111.563C152.142 114.222 126.677 117.924 99.3125 123.84C90.7222 125.764 67.184 131.236 55.6424 141.014C57.4931 142.542 58.9653 143.389 60.5417 144.215C61.7326 144.84 62.9861 145.458 64.5104 146.347C69.2465 143.229 75.7674 140.271 85.4028 137.743C100.601 133.708 112.413 131.764 125.795 129.563L129.792 128.903C144.74 126.639 172.997 120.722 188.528 115.097C192.101 113.889 195.448 112.389 198.299 110.646C199.594 109.854 200.785 109.014 201.847 108.132C200.809 106.965 190.747 102.083 190.448 102.535C184.253 105.486 175.372 108.438 162.646 111.563ZM173.153 131.694C141.49 140.271 118.535 141.438 92.4861 147.84C89.4861 148.597 86.441 149.472 83.4653 150.472C81.2986 151.194 79.1667 151.986 77.1181 152.854C81.9826 155.375 87.316 157.604 92.6354 159.681C103.288 156.569 108.344 155.236 123.705 152.722L132.236 151.188C140.372 149.701 151.733 147.597 160.701 145.778C184.253 140.722 218.729 129.764 209.556 115.556C209.097 115.944 208.639 116.299 208.181 116.653C207.601 117.111 207.024 117.569 206.448 118.076C199.486 123.375 188.385 127.688 173.153 131.694ZM52.9826 155.375C54.0069 154.347 55.3507 153.451 56.3889 152.563C54.0069 151.333 52.375 150.292 50.5035 149.097L49.4271 148.41C48.2396 151.104 50.6285 154.028 52.9826 155.375ZM80.4965 163.965C76.2083 162.042 71.6285 160.132 67.184 158.056C65.1146 159.389 63.2014 160.708 61.7153 162.042C65.2639 164.118 68.6771 166.028 72.2326 167.979C74.8472 166.368 77.6146 165.021 80.4965 163.965ZM63.2014 177.743C63.6285 176.25 64.3819 175.076 65.4201 173.597C64.25 172.972 63.0833 172.354 61.9167 171.708C60.5625 170.951 59.2153 170.167 57.8681 169.285C57.7049 172.111 59.4965 174.625 63.2014 177.743Z" fill="#476BF0"/>
</svg>
