<svg width="256" height="256" viewBox="0 0 256 256" fill="none" xmlns="http://www.w3.org/2000/svg">
<path d="M128 0C57.2166 0 0 57.2166 0 128C0 198.783 57.2166 256 128 256C198.783 256 256 198.783 256 128C256 57.2166 198.783 0 128 0ZM110.304 182.267L100.866 209.991C65.4747 198.194 41.8802 164.571 41.8802 126.82C41.8802 89.0691 65.4747 56.0369 101.456 43.6498L110.894 71.3733C87.2995 79.0415 71.9631 101.456 71.9631 126.23C70.7834 152.184 86.7097 174.599 110.304 182.267V182.267ZM153.954 210.581L145.106 182.267C169.29 174.599 185.217 152.184 185.217 126.82C185.217 101.456 169.29 79.6313 145.696 71.9631L155.134 43.6498C191.115 55.447 215.3 89.0691 215.3 126.82C215.3 165.751 190.525 199.373 153.954 210.581V210.581Z" fill="#00BEF0"/>
</svg>
