<svg width="256" height="256" viewBox="0 0 256 256" fill="none" xmlns="http://www.w3.org/2000/svg">
<path fill-rule="evenodd" clip-rule="evenodd" d="M31.9741 111.164C49.7584 111.164 62.795 98.9254 62.795 81.1867C62.795 63.4479 49.7666 51.2092 31.9741 51.2092C14.1898 51.2092 1.15315 63.4479 1.15315 81.1867C1.15315 98.9254 14.1819 111.164 31.9741 111.164ZM152.093 111.164C169.878 111.164 182.914 98.9254 182.914 81.1867C182.914 63.4479 169.878 51.2092 152.093 51.2092C134.309 51.2092 121.272 63.4479 121.272 81.1867C121.272 98.9254 134.309 111.164 152.093 111.164ZM245.622 109.216V74.6214C245.622 57.9479 236.635 51.2092 224.492 51.2002C216.391 51.2002 210.045 55.1056 206.347 61.4907H205.995V52.975H191.195V109.216H206.167V81.5403C206.167 69.2948 211.628 65.0403 219.204 65.0403C226.419 65.0403 230.65 68.7745 230.65 77.8173V109.216H245.622ZM68.2556 65.752V52.975H116.164V64.8601L86.0481 96.4389H117.574V109.216H67.5507V97.1506L97.6667 65.752H68.2556ZM31.9741 97.3308C22.8156 97.3308 16.83 90.9389 16.83 81.1867C16.83 71.4254 22.8156 65.0403 31.9741 65.0403C41.1326 65.0403 47.1182 71.4254 47.1182 81.1867C47.1182 90.9479 41.1326 97.3308 31.9741 97.3308ZM152.093 97.3308C142.935 97.3308 136.949 90.9389 136.949 81.1867C136.949 71.4254 142.935 65.0403 152.093 65.0403C161.252 65.0403 167.237 71.4254 167.237 81.1867C167.237 90.9479 161.252 97.3308 152.093 97.3308ZM192.494 200.322V144.32H177.514V164.63H153.545V144.32H138.564V200.322H153.545V177.707H177.514V200.322H192.494ZM113.209 152.443V144.32H128.189V200.322H113.209V192.723H112.859C109.864 198.02 103.343 202.263 94.1799 202.263C79.1996 202.263 67.5667 191.491 67.5667 172.229C67.5667 153.151 79.5532 142.552 94.1799 142.552C103.162 142.552 110.217 146.795 112.859 152.443H113.209ZM15.1596 154.745C18.8595 148.036 25.9063 143.793 35.0693 143.793C49.8685 143.793 62.0259 154.745 62.0259 172.229C62.0259 189.723 48.6377 202.263 31.1892 202.263C13.5684 202.263 0 189.723 0 166.227C0 139.729 7.22691 123.119 31.5422 121.178L56.3902 119.236V133.545L34.0113 135.666C19.565 137.081 15.3319 142.378 14.8069 154.745H15.1596ZM83.2593 172.583C83.2593 181.95 89.0662 188.662 98.0591 188.662C107.042 188.662 113.209 181.77 113.209 172.403C113.209 162.862 107.042 156.153 98.0591 156.153C89.0766 156.153 83.2593 163.045 83.2593 172.583ZM15.6768 172.412C15.6768 182.124 22.3789 188.662 31.009 188.662C39.6472 188.662 46.3412 182.124 46.3412 172.412C46.3412 162.518 39.6472 156.687 31.009 156.687C22.3711 156.687 15.6768 162.518 15.6768 172.412ZM216.707 173.473L236.967 200.322L256 200.315L230.98 169.754L253.892 144.32H235.386L216.707 167.461V144.32H201.727V200.322H216.707V173.473Z" fill="#005BFF"/>
</svg>
