<svg width="256" height="256" viewBox="0 0 256 256" fill="none" xmlns="http://www.w3.org/2000/svg">
<path d="M256 207.616C256 238.72 238.72 256 207.616 256H48.384C17.28 256 0 238.72 0 207.616V48.384C0 17.28 17.28 0 48.384 0H207.68C238.72 0 256 17.28 256 48.384V207.616Z" fill="#FFE600"/>
<path d="M164.605 115.518V91.0697L173.437 82.2377V103.422L181.117 111.102L212.029 80.1897L219.645 87.8057C219.581 82.0457 218.429 65.3417 204.285 51.4537C189.053 36.7337 172.541 43.3897 166.909 49.0217L136.061 79.8697L143.933 87.7417L127.997 103.806L112.061 87.8697L119.933 79.9977L89.0847 49.1497C83.4527 43.5177 66.9407 36.8617 51.7086 51.5817C37.5646 65.4697 36.4126 82.1737 36.3486 87.9337L43.9646 80.3177L74.8767 111.23L82.5567 103.55V82.3657L91.3887 91.1977V115.646L103.805 127.998L42.6206 189.182L66.8127 213.31L127.997 152.19L189.181 213.374L213.373 189.246L152.189 127.998L164.605 115.518Z" fill="#2B2D34"/>
</svg>
