<svg width="256" height="256" viewBox="0 0 256 256" fill="none" xmlns="http://www.w3.org/2000/svg">
<path fill-rule="evenodd" clip-rule="evenodd" d="M90.8512 145.124L115.996 120.491V103.709L90.8512 128.285V145.124ZM90.8512 82.6598L115.996 57.9131V42.1548L90.8512 66.674V82.603V82.6598ZM90.8512 103.311L115.996 78.6776V62.8624L90.8512 87.4385V103.311ZM83.6832 42.3255L80.2698 39.1397V0H76.5151V35.385L73.2156 32.1423V0H69.404V28.4445L66.0475 25.145V0H62.2929V37.3192L87.5516 61.9522V0H83.74V42.3255H83.6832ZM90.8512 123.961L115.996 99.3283V83.5132L90.8512 108.089V123.961ZM62.236 120.491L87.4947 145.124V128.285L62.236 103.709V120.491ZM112.241 25.145L108.885 28.4445V0H105.13V32.1992L101.717 35.385V0H97.9623V39.0828L94.6627 42.3255V0H90.8512V62.0091L115.996 37.3192V0H112.241V25.145ZM62.236 57.9131L87.4947 82.6598V66.7309L62.236 42.0979V57.8562V57.9131ZM62.236 78.6776L87.4947 103.311V87.3816L62.236 62.9193V78.6776ZM62.236 99.3283L87.4947 123.961V108.089L62.236 83.5701V99.3283ZM212.252 112.356H151.04C152.376 110.288 153.087 107.878 153.088 105.415C153.057 98.2266 147.022 92.243 139.833 92.2741C132.687 92.3048 126.722 98.2701 126.691 105.415C126.691 108.26 127.602 110.877 129.138 113.039C127.992 113.801 127.271 115.133 127.26 116.509C127.26 117.988 128.057 119.296 129.138 120.036C127.553 122.262 126.698 124.926 126.691 127.659C126.691 134.817 132.675 140.8 139.833 140.8C147.022 140.832 153.057 134.848 153.088 127.659C153.088 125.099 152.348 122.71 151.04 120.719H196.608V123.506H192.057V127.375H196.608V131.357H192.057V138.752H196.608V135.453H203.264V138.752H207.758V131.357H203.264V127.375H207.758V123.506H203.264V120.662H212.252C213.988 120.662 215.438 119.211 215.438 117.476V115.542C215.408 113.819 213.976 112.386 212.252 112.356ZM146.659 127.716C146.659 131.434 143.551 134.543 139.833 134.543C136.114 134.543 133.006 131.434 133.006 127.716C133.006 125.104 134.782 122.91 136.078 120.776C134.847 119.724 134.123 118.128 134.144 116.509C134.144 114.802 134.883 113.323 136.021 112.299C134.796 110.155 133.022 107.935 133.063 105.359C133.063 101.64 136.171 98.5319 139.89 98.5319C143.608 98.5319 146.716 101.64 146.716 105.359C146.716 108.146 143.53 114.745 143.53 114.745V118.272C143.474 118.329 146.659 124.928 146.659 127.716ZM39.3666 104.335V120.776C39.3666 136.42 46.1932 146.546 50.1755 150.415L76.2307 176.015C83.5125 183.126 84.764 185.458 86.4138 189.498V171.293C86.4138 156.477 79.5248 149.985 75.0913 145.807C67.3461 138.509 59.7479 131.031 52.2235 123.506C46.5313 118.18 42.1334 111.622 39.3666 104.335ZM52.2235 164.125C46.9302 159.328 42.5879 153.577 39.4234 147.172V161.337C39.2534 172.253 43.0771 182.854 50.1755 191.147L76.2307 216.577C83.2576 223.439 84.669 226.858 86.2418 230.667L86.4138 231.083V211.912C86.4138 197.069 79.5007 190.57 75.102 186.435L75.0995 186.432L75.0926 186.426C67.3622 179.156 59.7318 171.633 52.2235 164.125ZM125.843 30.3779C124.04 30.3779 122.237 30.379 120.434 30.4917V38.1148C163.858 34.7846 205.897 59.5043 224.096 99.071C230.06 112.036 233.325 126.079 233.692 140.346C234.428 168.968 223.163 197.197 202.923 217.449C182.683 237.7 154.461 248.982 125.838 248.263C97.9356 248.293 71.1628 237.242 51.4059 217.538C31.6489 197.835 20.5251 171.092 20.4799 143.189C20.4799 110.933 34.9866 82.1469 57.9129 62.8047V53.0197C43.8987 63.5055 32.5237 77.1159 24.6923 92.7689C16.8608 108.422 12.7888 125.686 12.7998 143.189C12.7998 205.482 63.4311 256 125.895 256C155.835 256.015 184.555 244.14 205.742 222.985C226.928 201.831 238.847 173.129 238.877 143.189C238.877 80.897 188.248 30.3805 125.843 30.3779ZM210.774 194.73C209.238 197.29 207.531 199.794 205.824 202.126V179.598H210.774V194.73ZM220.75 172.564C220.592 173.083 220.433 173.607 220.274 174.137C217.544 171.349 212.651 171.406 208.271 171.52H205.824V167.537H222.209C221.772 169.196 221.269 170.854 220.75 172.564ZM106.667 166.912H111.104V166.969V211.911H106.667V166.912ZM96.4262 158.317H111.104C114.915 158.317 117.589 159.113 119.068 160.593C120.604 162.015 121.344 164.689 121.344 168.443V210.541C121.344 214.296 120.661 216.913 119.068 218.392C116.793 220.724 112.469 220.724 108.942 220.724L106.666 220.667V240.579L111.104 241.375V224.991C117.93 224.991 122.311 222.715 124.416 218.051V242.456H125.895L128.739 242.399V169.183C128.739 165.314 129.479 162.584 131.015 161.048C132.437 159.512 135.111 158.772 138.809 158.772C139.332 158.772 139.888 158.761 140.467 158.75C144.1 158.68 148.594 158.594 151.097 161.048C152.576 162.584 153.258 165.371 153.258 169.183V190.801H143.189V167.704H138.809V241.603C140.288 241.432 141.653 241.204 143.189 240.92V195.124H153.258V238.587C155.306 238.019 157.354 237.393 159.402 236.653V196.831C159.402 192.28 160.483 188.866 165.091 187.33L159.971 159.625H170.211L171.918 189.834H173.17L174.876 159.625H185.571L179.826 187.33C184.604 189.037 185.571 191.938 185.571 196.774V222.545C188.556 220.307 191.405 217.894 194.105 215.32V159.398H223.972L224.54 155.302H154.624L155.591 160.365C153.429 156.269 149.219 154.221 143.075 154.221H138.695C131.299 154.221 126.748 157.179 125.041 163.039C123.505 156.895 118.784 153.823 111.047 153.823H91.932V236.426C93.4111 236.938 94.8902 237.45 96.3694 237.848V158.374L96.4262 158.317ZM189.099 190.061L184.263 185.51L189.099 160.649V190.061ZM170.934 231.642C170.673 231.776 170.413 231.91 170.154 232.044V231.987V195.578H174.706V229.598C173.523 230.308 172.222 230.978 170.934 231.642Z" fill="#42AB44"/>
</svg>
