<svg width="256" height="256" viewBox="0 0 256 256" fill="none" xmlns="http://www.w3.org/2000/svg">
<path d="M226.251 49.7295C232.251 57.5909 237.33 66.1317 241.386 75.1803L126.334 161.132L78.2515 130.585V93.8361L126.334 124.383L226.251 49.7295Z" fill="#21A038"/>
<path d="M29.1793 127.997C29.1793 126.348 29.219 124.71 29.2984 123.081L0.1587 121.634C0.0595177 123.745 3.52139e-05 125.876 3.52139e-05 128.026C-0.0123629 144.832 3.2492 161.473 9.59772 176.997C15.9462 192.522 25.2566 206.623 36.9949 218.491L57.6643 197.554C48.6286 188.434 41.4606 177.593 36.5722 165.656C31.6837 153.719 29.1713 140.921 29.1793 127.997Z" fill="url(#paint0_linear_63_1119)"/>
<path d="M126.308 29.5695C127.935 29.5695 129.551 29.6299 131.158 29.7103L132.616 0.168442C130.527 0.0679252 128.424 0.0176731 126.308 0.0176731C109.718 -0.00282987 93.289 3.29786 77.9621 9.73021C62.635 16.1626 48.7128 25.5999 36.9946 37.5004L57.6641 58.448C66.6637 49.2877 77.3613 42.0206 89.1418 37.0646C100.922 32.1086 113.553 29.5614 126.308 29.5695Z" fill="url(#paint1_linear_63_1119)"/>
<path d="M126.309 226.432C124.682 226.432 123.065 226.432 121.449 226.301L119.991 255.833C122.087 255.94 124.193 255.994 126.309 255.994C142.892 256.011 159.313 252.708 174.632 246.274C189.951 239.84 203.864 230.401 215.573 218.501L194.943 197.563C185.942 206.719 175.246 213.982 163.467 218.936C151.689 223.89 139.061 226.438 126.309 226.432Z" fill="url(#paint2_linear_63_1119)"/>
<path d="M181.059 46.7404L205.616 28.3961C183.171 9.97605 155.153 -0.0511321 126.271 0.000196082V29.5621C145.828 29.5375 164.932 35.5275 181.059 46.7404Z" fill="url(#paint3_linear_63_1119)"/>
<path d="M252.608 128.001C252.623 120.311 251.96 112.634 250.624 105.063L223.438 125.368C223.438 126.243 223.438 127.117 223.438 128.001C223.445 141.755 220.6 155.357 215.089 167.924C209.577 180.492 201.52 191.746 191.442 200.956L211.05 222.92C224.153 210.932 234.623 196.288 241.782 179.936C248.942 163.585 252.63 145.89 252.608 128.001Z" fill="#21A038"/>
<path d="M126.309 226.434C112.737 226.438 99.3151 223.554 86.9124 217.968C74.5104 212.383 63.4039 204.219 54.3124 194.007L32.6511 213.869C44.4781 227.15 58.9274 237.762 75.0621 245.02C91.1966 252.277 108.656 256.016 126.309 255.995V226.434Z" fill="url(#paint4_linear_63_1119)"/>
<path d="M61.1755 55.04L41.5771 33.0771C28.4709 45.0625 17.9969 59.7059 10.8342 76.0576C3.67166 92.4092 -0.0195277 110.104 7.76906e-05 127.995H29.1794C29.1734 114.242 32.0185 100.64 37.5303 88.0726C43.0422 75.5052 51.0979 64.2511 61.1755 55.04Z" fill="url(#paint5_linear_63_1119)"/>
<defs>
<linearGradient id="paint0_linear_63_1119" x1="42.8962" y1="214.803" x2="10.2499" y2="121.682" gradientUnits="userSpaceOnUse">
<stop offset="0.14" stop-color="#F1E813"/>
<stop offset="0.3" stop-color="#E6E418"/>
<stop offset="0.58" stop-color="#C9DA26"/>
<stop offset="0.89" stop-color="#A2CC39"/>
</linearGradient>
<linearGradient id="paint1_linear_63_1119" x1="45.3259" y1="42.7272" x2="127.714" y2="11.7472" gradientUnits="userSpaceOnUse">
<stop offset="0.06" stop-color="#0FA7DF"/>
<stop offset="0.54" stop-color="#0098F8"/>
<stop offset="0.92" stop-color="#0290EA"/>
</linearGradient>
<linearGradient id="paint2_linear_63_1119" x1="118.067" y1="238.152" x2="211.04" y2="217.427" gradientUnits="userSpaceOnUse">
<stop offset="0.12" stop-color="#A2CC39"/>
<stop offset="0.28" stop-color="#86C239"/>
<stop offset="0.87" stop-color="#219F38"/>
</linearGradient>
<linearGradient id="paint3_linear_63_1119" x1="120.201" y1="9.90107" x2="199.768" y2="34.1293" gradientUnits="userSpaceOnUse">
<stop offset="0.06" stop-color="#0290EA"/>
<stop offset="0.79" stop-color="#0C89CA"/>
</linearGradient>
<linearGradient id="paint4_linear_63_1119" x1="39.9707" y1="210.27" x2="126.659" y2="242.238" gradientUnits="userSpaceOnUse">
<stop offset="0.13" stop-color="#F1E813"/>
<stop offset="0.3" stop-color="#EAE616"/>
<stop offset="0.53" stop-color="#D8DF1F"/>
<stop offset="0.8" stop-color="#BAD52D"/>
<stop offset="0.98" stop-color="#A2CC39"/>
</linearGradient>
<linearGradient id="paint5_linear_63_1119" x1="10.8704" y1="131.573" x2="46.3703" y2="40.4514" gradientUnits="userSpaceOnUse">
<stop offset="0.07" stop-color="#A2CC39"/>
<stop offset="0.26" stop-color="#81C45E"/>
<stop offset="0.92" stop-color="#0FA7DF"/>
</linearGradient>
</defs>
</svg>
