<svg width="256" height="256" viewBox="0 0 256 256" fill="none" xmlns="http://www.w3.org/2000/svg">
<path d="M153.507 2.72754V69.0999H127.778C95.2687 69.0999 69.083 95.2848 69.083 127.792C69.083 160.289 95.2686 186.474 127.767 186.474H153.507V252.847C212.192 241.558 256 190.093 256 127.782C256 65.9333 212.213 14.4681 153.507 2.72754Z" fill="#003791"/>
<path d="M127.777 207.228C83.9786 207.228 48.2973 171.564 48.2973 127.779C48.2973 83.9938 83.9682 48.3196 127.756 48.3196H132.732V0H127.766C57.3472 0 0 57.3459 0 127.769C0 198.654 57.3472 256 127.777 256H132.742V207.249H127.777V207.228Z" fill="#FF4B5F"/>
</svg>
