<svg width="256" height="256" viewBox="0 0 256 256" fill="none" xmlns="http://www.w3.org/2000/svg">
<path d="M128 256C198.692 256 256 198.692 256 128C256 57.3076 198.692 0 128 0C57.3076 0 0 57.3076 0 128C0 198.692 57.3076 256 128 256Z" fill="black"/>
<path d="M174.317 208.353H146.218V69.38H133.701C110.756 69.38 98.7375 80.8522 98.7375 97.9775C98.7375 117.407 107.027 126.409 124.176 137.881L138.308 147.406L97.6924 208.33H67.4797L104.034 153.937C83.0136 138.926 71.1851 124.271 71.1851 99.5451C71.1851 68.6436 92.7282 47.623 133.511 47.623H174.127V208.306H174.317V208.353Z" fill="white"/>
</svg>
