<svg width="256" height="256" viewBox="0 0 256 256" fill="none" xmlns="http://www.w3.org/2000/svg">
<path d="M164.85 38.4004C114.316 38.4004 73.7155 79.2797 73.7155 129.24C73.7155 179.613 114.718 220.08 164.839 220.08C214.96 220.08 256 179.201 256 129.24C256 79.2797 214.971 38.4004 164.85 38.4004ZM164.85 163.099C146.211 163.099 130.89 147.82 130.89 129.24C130.89 110.66 146.211 95.382 164.85 95.382C183.489 95.382 198.815 110.66 198.815 129.24C198.398 147.82 183.489 163.099 164.85 163.099ZM73.7155 64.7935V196.925H41.4251L0 64.7935H73.7155Z" fill="#8B3FFD"/>
</svg>
